<?xml version="1.0" encoding="UTF-8"?>
<svg id="Livello_1" data-name="Livello 1" xmlns="http://www.w3.org/2000/svg" viewBox="0 0 286.4 152.23">
  <path d="M5.35,3.28C-2.75,9.62-1.45,21.96,7.86,27.21c3.1,1.75,267.59,1.75,270.69,0,6.2-3.5,8.6-9.07,7.3-16.83-.5-2.84-1.8-4.81-4.8-7.1l-4.1-3.28H9.46l-4.1,3.28Z"/>
  <path d="M6.01,64.26C1.91,67.22.11,70.84.11,76s1.8,8.78,5.9,11.74l3.4,2.52h267.58l3.4-2.52c4.1-2.96,5.9-6.58,5.9-11.74s-1.8-8.78-5.9-11.74l-3.4-2.52H9.41s-3.4,2.52-3.4,2.52Z"/>
  <path d="M7.66,125.08c-6.1,3.61-8.4,9.09-7.1,16.75.5,2.85,1.8,4.82,4.8,7.12l4.1,3.28h267.48l4.1-3.28c8.1-6.35,6.8-18.72-2.5-23.97-3.1-1.75-267.98-1.64-270.88.11h0Z"/>
</svg>